<svg id="visual" viewBox="0 0 900 600" width="900" height="600" xmlns="http://www.w3.org/2000/svg" xmlns:xlink="http://www.w3.org/1999/xlink" version="1.1"><path d="M0 395L21.5 416.2C43 437.3 86 479.7 128.8 478.5C171.7 477.3 214.3 432.7 257.2 420.5C300 408.3 343 428.7 385.8 444.5C428.7 460.3 471.3 471.7 514.2 473C557 474.3 600 465.7 642.8 451C685.7 436.3 728.3 415.7 771.2 421.5C814 427.3 857 459.7 878.5 475.8L900 492L900 601L878.5 601C857 601 814 601 771.2 601C728.3 601 685.7 601 642.8 601C600 601 557 601 514.2 601C471.3 601 428.7 601 385.8 601C343 601 300 601 257.2 601C214.3 601 171.7 601 128.8 601C86 601 43 601 21.5 601L0 601Z" fill="#3f3d56" stroke-linecap="round" stroke-linejoin="miter"></path></svg>